<svg width="574" height="287" viewBox="0 0 574 287" fill="none" xmlns="http://www.w3.org/2000/svg">
<g opacity="0.1">
<path d="M436.825 105.653C435.912 105.668 435.04 106.042 434.399 106.695C433.759 107.347 433.399 108.225 433.399 109.14C433.399 110.055 433.759 110.933 434.399 111.585C435.04 112.237 435.912 112.611 436.825 112.626H524.147C524.605 112.634 525.059 112.552 525.485 112.384C525.911 112.216 526.3 111.965 526.629 111.647C526.958 111.328 527.221 110.948 527.403 110.528C527.585 110.107 527.683 109.655 527.691 109.197C527.698 108.739 527.615 108.284 527.447 107.858C527.279 107.432 527.028 107.043 526.71 106.714C526.391 106.385 526.011 106.122 525.591 105.94C525.171 105.758 524.719 105.66 524.261 105.653C524.223 105.653 524.185 105.653 524.147 105.653H436.825Z" fill="#3F3D56"/>
<path d="M543.949 104.683C543.885 104.746 543.835 104.822 543.801 104.905C543.766 104.988 543.748 105.078 543.748 105.168C543.748 105.258 543.766 105.347 543.801 105.43C543.835 105.514 543.885 105.589 543.949 105.653L546.891 108.598H539.636C539.455 108.598 539.28 108.67 539.152 108.799C539.023 108.928 538.951 109.102 538.951 109.284C538.951 109.466 539.023 109.64 539.152 109.769C539.28 109.898 539.455 109.97 539.636 109.97H546.891L543.949 112.915C543.885 112.979 543.835 113.054 543.801 113.138C543.766 113.221 543.748 113.31 543.748 113.4C543.748 113.49 543.766 113.58 543.801 113.663C543.835 113.746 543.885 113.822 543.949 113.885C544.013 113.949 544.088 114 544.171 114.034C544.255 114.069 544.344 114.086 544.434 114.086C544.524 114.086 544.613 114.069 544.696 114.034C544.779 114 544.855 113.949 544.918 113.885L549.03 109.769C549.159 109.64 549.231 109.466 549.231 109.284C549.231 109.102 549.159 108.928 549.03 108.799L544.918 104.683C544.855 104.619 544.779 104.568 544.696 104.534C544.613 104.499 544.524 104.482 544.434 104.482C544.344 104.482 544.255 104.499 544.171 104.534C544.088 104.568 544.013 104.619 543.949 104.683Z" fill="white"/>
<path d="M416.986 104.683C417.05 104.746 417.1 104.822 417.134 104.905C417.169 104.988 417.187 105.078 417.187 105.168C417.187 105.258 417.169 105.347 417.134 105.43C417.1 105.514 417.05 105.589 416.986 105.653L414.044 108.598H421.298C421.389 108.598 421.478 108.615 421.561 108.65C421.645 108.684 421.721 108.734 421.784 108.798C421.848 108.862 421.899 108.938 421.933 109.021C421.968 109.104 421.986 109.194 421.986 109.284C421.986 109.374 421.968 109.464 421.933 109.547C421.899 109.63 421.848 109.706 421.784 109.77C421.721 109.834 421.645 109.884 421.561 109.918C421.478 109.953 421.389 109.97 421.298 109.97H414.044L416.986 112.915C417.114 113.044 417.187 113.218 417.187 113.4C417.187 113.582 417.114 113.757 416.986 113.885C416.857 114.014 416.683 114.086 416.501 114.086C416.32 114.086 416.145 114.014 416.017 113.885L411.905 109.769C411.776 109.64 411.704 109.466 411.704 109.284C411.704 109.102 411.776 108.928 411.905 108.799L416.017 104.683C416.08 104.619 416.156 104.568 416.239 104.534C416.322 104.499 416.411 104.482 416.501 104.482C416.591 104.482 416.68 104.499 416.764 104.534C416.847 104.568 416.922 104.619 416.986 104.683Z" fill="white"/>
<g opacity="0.4">
<path d="M440.352 33.2921C442.419 33.2921 444.095 31.6147 444.095 29.5455C444.095 27.4763 442.419 25.7988 440.352 25.7988C438.285 25.7988 436.609 27.4763 436.609 29.5455C436.609 31.6147 438.285 33.2921 440.352 33.2921Z" fill="white"/>
<path d="M455.947 33.2921C458.014 33.2921 459.689 31.6147 459.689 29.5455C459.689 27.4763 458.014 25.7988 455.947 25.7988C453.88 25.7988 452.204 27.4763 452.204 29.5455C452.204 31.6147 453.88 33.2921 455.947 33.2921Z" fill="white"/>
<path d="M471.541 33.2921C473.608 33.2921 475.283 31.6147 475.283 29.5455C475.283 27.4763 473.608 25.7988 471.541 25.7988C469.473 25.7988 467.798 27.4763 467.798 29.5455C467.798 31.6147 469.473 33.2921 471.541 33.2921Z" fill="white"/>
<path d="M487.135 33.2921C489.202 33.2921 490.878 31.6147 490.878 29.5455C490.878 27.4763 489.202 25.7988 487.135 25.7988C485.068 25.7988 483.393 27.4763 483.393 29.5455C483.393 31.6147 485.068 33.2921 487.135 33.2921Z" fill="white"/>
<path d="M502.73 33.2921C504.797 33.2921 506.473 31.6147 506.473 29.5455C506.473 27.4763 504.797 25.7988 502.73 25.7988C500.663 25.7988 498.987 27.4763 498.987 29.5455C498.987 31.6147 500.663 33.2921 502.73 33.2921Z" fill="white"/>
<path d="M518.324 33.2921C520.391 33.2921 522.066 31.6147 522.066 29.5455C522.066 27.4763 520.391 25.7988 518.324 25.7988C516.257 25.7988 514.581 27.4763 514.581 29.5455C514.581 31.6147 516.257 33.2921 518.324 33.2921Z" fill="white"/>
<path d="M533.918 33.2921C535.985 33.2921 537.661 31.6147 537.661 29.5455C537.661 27.4763 535.985 25.7988 533.918 25.7988C531.851 25.7988 530.176 27.4763 530.176 29.5455C530.176 31.6147 531.851 33.2921 533.918 33.2921Z" fill="white"/>
<path d="M440.352 45.1565C442.419 45.1565 444.095 43.479 444.095 41.4098C444.095 39.3406 442.419 37.6632 440.352 37.6632C438.285 37.6632 436.609 39.3406 436.609 41.4098C436.609 43.479 438.285 45.1565 440.352 45.1565Z" fill="white"/>
<path d="M455.947 45.1565C458.014 45.1565 459.689 43.479 459.689 41.4098C459.689 39.3406 458.014 37.6632 455.947 37.6632C453.88 37.6632 452.204 39.3406 452.204 41.4098C452.204 43.479 453.88 45.1565 455.947 45.1565Z" fill="white"/>
<path d="M471.541 45.1565C473.608 45.1565 475.283 43.479 475.283 41.4098C475.283 39.3406 473.608 37.6632 471.541 37.6632C469.473 37.6632 467.798 39.3406 467.798 41.4098C467.798 43.479 469.473 45.1565 471.541 45.1565Z" fill="white"/>
<path d="M487.135 45.1565C489.202 45.1565 490.878 43.479 490.878 41.4098C490.878 39.3406 489.202 37.6632 487.135 37.6632C485.068 37.6632 483.393 39.3406 483.393 41.4098C483.393 43.479 485.068 45.1565 487.135 45.1565Z" fill="white"/>
<path d="M502.73 45.1565C504.797 45.1565 506.473 43.479 506.473 41.4098C506.473 39.3406 504.797 37.6632 502.73 37.6632C500.663 37.6632 498.987 39.3406 498.987 41.4098C498.987 43.479 500.663 45.1565 502.73 45.1565Z" fill="white"/>
<path d="M518.324 45.1565C520.391 45.1565 522.066 43.479 522.066 41.4098C522.066 39.3406 520.391 37.6632 518.324 37.6632C516.257 37.6632 514.581 39.3406 514.581 41.4098C514.581 43.479 516.257 45.1565 518.324 45.1565Z" fill="white"/>
<path d="M533.918 45.1565C535.985 45.1565 537.661 43.479 537.661 41.4098C537.661 39.3406 535.985 37.6632 533.918 37.6632C531.851 37.6632 530.176 39.3406 530.176 41.4098C530.176 43.479 531.851 45.1565 533.918 45.1565Z" fill="white"/>
<path d="M440.352 57.0207C442.419 57.0207 444.095 55.3433 444.095 53.2741C444.095 51.2049 442.419 49.5275 440.352 49.5275C438.285 49.5275 436.609 51.2049 436.609 53.2741C436.609 55.3433 438.285 57.0207 440.352 57.0207Z" fill="white"/>
<path d="M455.947 57.0207C458.014 57.0207 459.689 55.3433 459.689 53.2741C459.689 51.2049 458.014 49.5275 455.947 49.5275C453.88 49.5275 452.204 51.2049 452.204 53.2741C452.204 55.3433 453.88 57.0207 455.947 57.0207Z" fill="white"/>
<path d="M471.541 57.0207C473.608 57.0207 475.283 55.3433 475.283 53.2741C475.283 51.2049 473.608 49.5275 471.541 49.5275C469.473 49.5275 467.798 51.2049 467.798 53.2741C467.798 55.3433 469.473 57.0207 471.541 57.0207Z" fill="white"/>
<path d="M487.135 57.0207C489.202 57.0207 490.878 55.3433 490.878 53.2741C490.878 51.2049 489.202 49.5275 487.135 49.5275C485.068 49.5275 483.393 51.2049 483.393 53.2741C483.393 55.3433 485.068 57.0207 487.135 57.0207Z" fill="white"/>
<path d="M502.73 57.0207C504.797 57.0207 506.473 55.3433 506.473 53.2741C506.473 51.2049 504.797 49.5275 502.73 49.5275C500.663 49.5275 498.987 51.2049 498.987 53.2741C498.987 55.3433 500.663 57.0207 502.73 57.0207Z" fill="white"/>
<path d="M518.324 57.0207C520.391 57.0207 522.066 55.3433 522.066 53.2741C522.066 51.2049 520.391 49.5275 518.324 49.5275C516.257 49.5275 514.581 51.2049 514.581 53.2741C514.581 55.3433 516.257 57.0207 518.324 57.0207Z" fill="white"/>
<path d="M533.918 57.0207C535.985 57.0207 537.661 55.3433 537.661 53.2741C537.661 51.2049 535.985 49.5275 533.918 49.5275C531.851 49.5275 530.176 51.2049 530.176 53.2741C530.176 55.3433 531.851 57.0207 533.918 57.0207Z" fill="white"/>
<path d="M440.352 68.8851C442.419 68.8851 444.095 67.2077 444.095 65.1385C444.095 63.0693 442.419 61.3918 440.352 61.3918C438.285 61.3918 436.609 63.0693 436.609 65.1385C436.609 67.2077 438.285 68.8851 440.352 68.8851Z" fill="white"/>
<path d="M455.947 68.8851C458.014 68.8851 459.689 67.2077 459.689 65.1385C459.689 63.0693 458.014 61.3918 455.947 61.3918C453.88 61.3918 452.204 63.0693 452.204 65.1385C452.204 67.2077 453.88 68.8851 455.947 68.8851Z" fill="white"/>
<path d="M440.352 80.7494C442.419 80.7494 444.095 79.0719 444.095 77.0027C444.095 74.9335 442.419 73.2561 440.352 73.2561C438.285 73.2561 436.609 74.9335 436.609 77.0027C436.609 79.0719 438.285 80.7494 440.352 80.7494Z" fill="white"/>
<path d="M455.947 80.7494C458.014 80.7494 459.689 79.0719 459.689 77.0027C459.689 74.9335 458.014 73.2561 455.947 73.2561C453.88 73.2561 452.204 74.9335 452.204 77.0027C452.204 79.0719 453.88 80.7494 455.947 80.7494Z" fill="white"/>
<path d="M471.541 80.7494C473.608 80.7494 475.283 79.0719 475.283 77.0027C475.283 74.9335 473.608 73.2561 471.541 73.2561C469.473 73.2561 467.798 74.9335 467.798 77.0027C467.798 79.0719 469.473 80.7494 471.541 80.7494Z" fill="white"/>
<path d="M471.541 68.8851C473.608 68.8851 475.283 67.2077 475.283 65.1385C475.283 63.0693 473.608 61.3918 471.541 61.3918C469.473 61.3918 467.798 63.0693 467.798 65.1385C467.798 67.2077 469.473 68.8851 471.541 68.8851Z" fill="white"/>
<path d="M487.135 68.8851C489.202 68.8851 490.878 67.2077 490.878 65.1385C490.878 63.0693 489.202 61.3918 487.135 61.3918C485.068 61.3918 483.393 63.0693 483.393 65.1385C483.393 67.2077 485.068 68.8851 487.135 68.8851Z" fill="white"/>
<path d="M502.73 68.8851C504.797 68.8851 506.473 67.2077 506.473 65.1385C506.473 63.0693 504.797 61.3918 502.73 61.3918C500.663 61.3918 498.987 63.0693 498.987 65.1385C498.987 67.2077 500.663 68.8851 502.73 68.8851Z" fill="white"/>
<path d="M518.324 68.8851C520.391 68.8851 522.066 67.2077 522.066 65.1385C522.066 63.0693 520.391 61.3918 518.324 61.3918C516.257 61.3918 514.581 63.0693 514.581 65.1385C514.581 67.2077 516.257 68.8851 518.324 68.8851Z" fill="white"/>
<path d="M533.918 68.8851C535.985 68.8851 537.661 67.2077 537.661 65.1385C537.661 63.0693 535.985 61.3918 533.918 61.3918C531.851 61.3918 530.176 63.0693 530.176 65.1385C530.176 67.2077 531.851 68.8851 533.918 68.8851Z" fill="white"/>
</g>
<path d="M386.664 220.145C382.577 220.145 378.583 218.932 375.186 216.66C371.788 214.387 369.14 211.157 367.577 207.378C366.013 203.599 365.604 199.441 366.401 195.429C367.198 191.417 369.166 187.732 372.055 184.84C374.944 181.947 378.625 179.978 382.633 179.18C386.641 178.382 390.795 178.791 394.57 180.356C398.345 181.922 401.571 184.573 403.841 187.974C406.111 191.375 407.323 195.373 407.323 199.464C407.317 204.947 405.138 210.204 401.265 214.081C397.392 217.958 392.141 220.139 386.664 220.145ZM386.664 179.955C382.809 179.955 379.041 181.099 375.836 183.243C372.632 185.386 370.134 188.433 368.659 191.998C367.184 195.563 366.798 199.485 367.55 203.27C368.302 207.054 370.158 210.53 372.883 213.258C375.609 215.987 379.081 217.845 382.862 218.598C386.642 219.35 390.56 218.964 394.121 217.487C397.682 216.011 400.726 213.51 402.867 210.302C405.009 207.094 406.152 203.322 406.152 199.464C406.146 194.291 404.091 189.333 400.437 185.675C396.784 182.018 391.83 179.961 386.664 179.955Z" fill="#3F3D56"/>
<path d="M394.584 197.481H388.644V191.535C388.644 191.009 388.435 190.505 388.064 190.133C387.692 189.761 387.189 189.552 386.664 189.552C386.138 189.552 385.635 189.761 385.263 190.133C384.892 190.505 384.683 191.009 384.683 191.535V197.481H378.743C378.218 197.481 377.714 197.69 377.343 198.062C376.971 198.434 376.763 198.938 376.763 199.464C376.763 199.989 376.971 200.494 377.343 200.865C377.714 201.237 378.218 201.446 378.743 201.446H384.683V207.393C384.683 207.918 384.892 208.423 385.263 208.794C385.635 209.166 386.138 209.375 386.664 209.375C387.189 209.375 387.692 209.166 388.064 208.794C388.435 208.423 388.644 207.918 388.644 207.393V201.446H394.584C395.109 201.446 395.613 201.237 395.984 200.865C396.356 200.494 396.564 199.989 396.564 199.464C396.564 198.938 396.356 198.434 395.984 198.062C395.613 197.69 395.109 197.481 394.584 197.481Z" fill="white"/>
<g opacity="0.4">
<path d="M31.6428 222.684C33.2679 222.684 34.5853 221.365 34.5853 219.739C34.5853 218.112 33.2679 216.793 31.6428 216.793C30.0176 216.793 28.7002 218.112 28.7002 219.739C28.7002 221.365 30.0176 222.684 31.6428 222.684Z" fill="white"/>
<path d="M31.6428 210.411C33.2679 210.411 34.5853 209.092 34.5853 207.465C34.5853 205.838 33.2679 204.519 31.6428 204.519C30.0176 204.519 28.7002 205.838 28.7002 207.465C28.7002 209.092 30.0176 210.411 31.6428 210.411Z" fill="white"/>
<path d="M31.6428 198.137C33.2679 198.137 34.5853 196.818 34.5853 195.191C34.5853 193.564 33.2679 192.245 31.6428 192.245C30.0176 192.245 28.7002 193.564 28.7002 195.191C28.7002 196.818 30.0176 198.137 31.6428 198.137Z" fill="white"/>
<path d="M31.6428 185.863C33.2679 185.863 34.5853 184.544 34.5853 182.917C34.5853 181.291 33.2679 179.972 31.6428 179.972C30.0176 179.972 28.7002 181.291 28.7002 182.917C28.7002 184.544 30.0176 185.863 31.6428 185.863Z" fill="white"/>
<path d="M31.6428 173.589C33.2679 173.589 34.5853 172.27 34.5853 170.644C34.5853 169.017 33.2679 167.698 31.6428 167.698C30.0176 167.698 28.7002 169.017 28.7002 170.644C28.7002 172.27 30.0176 173.589 31.6428 173.589Z" fill="white"/>
<path d="M31.6428 161.315C33.2679 161.315 34.5853 159.997 34.5853 158.37C34.5853 156.743 33.2679 155.424 31.6428 155.424C30.0176 155.424 28.7002 156.743 28.7002 158.37C28.7002 159.997 30.0176 161.315 31.6428 161.315Z" fill="white"/>
<path d="M31.6428 149.042C33.2679 149.042 34.5853 147.723 34.5853 146.096C34.5853 144.469 33.2679 143.15 31.6428 143.15C30.0176 143.15 28.7002 144.469 28.7002 146.096C28.7002 147.723 30.0176 149.042 31.6428 149.042Z" fill="white"/>
<path d="M40.9611 222.684C42.5863 222.684 43.9037 221.365 43.9037 219.739C43.9037 218.112 42.5863 216.793 40.9611 216.793C39.336 216.793 38.0186 218.112 38.0186 219.739C38.0186 221.365 39.336 222.684 40.9611 222.684Z" fill="white"/>
<path d="M40.9611 210.411C42.5863 210.411 43.9037 209.092 43.9037 207.465C43.9037 205.838 42.5863 204.519 40.9611 204.519C39.336 204.519 38.0186 205.838 38.0186 207.465C38.0186 209.092 39.336 210.411 40.9611 210.411Z" fill="white"/>
<path d="M40.9611 198.137C42.5863 198.137 43.9037 196.818 43.9037 195.191C43.9037 193.564 42.5863 192.245 40.9611 192.245C39.336 192.245 38.0186 193.564 38.0186 195.191C38.0186 196.818 39.336 198.137 40.9611 198.137Z" fill="white"/>
<path d="M40.9611 185.863C42.5863 185.863 43.9037 184.544 43.9037 182.917C43.9037 181.291 42.5863 179.972 40.9611 179.972C39.336 179.972 38.0186 181.291 38.0186 182.917C38.0186 184.544 39.336 185.863 40.9611 185.863Z" fill="white"/>
<path d="M40.9611 173.589C42.5863 173.589 43.9037 172.27 43.9037 170.644C43.9037 169.017 42.5863 167.698 40.9611 167.698C39.336 167.698 38.0186 169.017 38.0186 170.644C38.0186 172.27 39.336 173.589 40.9611 173.589Z" fill="white"/>
<path d="M40.9611 161.315C42.5863 161.315 43.9037 159.997 43.9037 158.37C43.9037 156.743 42.5863 155.424 40.9611 155.424C39.336 155.424 38.0186 156.743 38.0186 158.37C38.0186 159.997 39.336 161.315 40.9611 161.315Z" fill="white"/>
<path d="M40.9611 149.042C42.5863 149.042 43.9037 147.723 43.9037 146.096C43.9037 144.469 42.5863 143.15 40.9611 143.15C39.336 143.15 38.0186 144.469 38.0186 146.096C38.0186 147.723 39.336 149.042 40.9611 149.042Z" fill="white"/>
<path d="M50.2795 222.684C51.9046 222.684 53.2221 221.365 53.2221 219.739C53.2221 218.112 51.9046 216.793 50.2795 216.793C48.6544 216.793 47.3369 218.112 47.3369 219.739C47.3369 221.365 48.6544 222.684 50.2795 222.684Z" fill="white"/>
<path d="M50.2795 210.411C51.9046 210.411 53.2221 209.092 53.2221 207.465C53.2221 205.838 51.9046 204.519 50.2795 204.519C48.6544 204.519 47.3369 205.838 47.3369 207.465C47.3369 209.092 48.6544 210.411 50.2795 210.411Z" fill="white"/>
<path d="M50.2795 198.137C51.9046 198.137 53.2221 196.818 53.2221 195.191C53.2221 193.564 51.9046 192.245 50.2795 192.245C48.6544 192.245 47.3369 193.564 47.3369 195.191C47.3369 196.818 48.6544 198.137 50.2795 198.137Z" fill="white"/>
<path d="M50.2795 185.863C51.9046 185.863 53.2221 184.544 53.2221 182.917C53.2221 181.291 51.9046 179.972 50.2795 179.972C48.6544 179.972 47.3369 181.291 47.3369 182.917C47.3369 184.544 48.6544 185.863 50.2795 185.863Z" fill="white"/>
<path d="M50.2795 173.589C51.9046 173.589 53.2221 172.27 53.2221 170.644C53.2221 169.017 51.9046 167.698 50.2795 167.698C48.6544 167.698 47.3369 169.017 47.3369 170.644C47.3369 172.27 48.6544 173.589 50.2795 173.589Z" fill="white"/>
<path d="M50.2795 161.315C51.9046 161.315 53.2221 159.997 53.2221 158.37C53.2221 156.743 51.9046 155.424 50.2795 155.424C48.6544 155.424 47.3369 156.743 47.3369 158.37C47.3369 159.997 48.6544 161.315 50.2795 161.315Z" fill="white"/>
<path d="M50.2795 149.042C51.9046 149.042 53.2221 147.723 53.2221 146.096C53.2221 144.469 51.9046 143.15 50.2795 143.15C48.6544 143.15 47.3369 144.469 47.3369 146.096C47.3369 147.723 48.6544 149.042 50.2795 149.042Z" fill="white"/>
<path d="M59.5969 222.684C61.222 222.684 62.5394 221.365 62.5394 219.739C62.5394 218.112 61.222 216.793 59.5969 216.793C57.9717 216.793 56.6543 218.112 56.6543 219.739C56.6543 221.365 57.9717 222.684 59.5969 222.684Z" fill="white"/>
<path d="M59.5969 210.411C61.222 210.411 62.5394 209.092 62.5394 207.465C62.5394 205.838 61.222 204.519 59.5969 204.519C57.9717 204.519 56.6543 205.838 56.6543 207.465C56.6543 209.092 57.9717 210.411 59.5969 210.411Z" fill="white"/>
<path d="M68.9152 222.684C70.5404 222.684 71.8578 221.365 71.8578 219.739C71.8578 218.112 70.5404 216.793 68.9152 216.793C67.2901 216.793 65.9727 218.112 65.9727 219.739C65.9727 221.365 67.2901 222.684 68.9152 222.684Z" fill="white"/>
<path d="M68.9152 210.411C70.5404 210.411 71.8578 209.092 71.8578 207.465C71.8578 205.838 70.5404 204.519 68.9152 204.519C67.2901 204.519 65.9727 205.838 65.9727 207.465C65.9727 209.092 67.2901 210.411 68.9152 210.411Z" fill="white"/>
<path d="M68.9152 198.137C70.5404 198.137 71.8578 196.818 71.8578 195.191C71.8578 193.564 70.5404 192.245 68.9152 192.245C67.2901 192.245 65.9727 193.564 65.9727 195.191C65.9727 196.818 67.2901 198.137 68.9152 198.137Z" fill="white"/>
<path d="M59.5969 198.137C61.222 198.137 62.5394 196.818 62.5394 195.191C62.5394 193.564 61.222 192.245 59.5969 192.245C57.9717 192.245 56.6543 193.564 56.6543 195.191C56.6543 196.818 57.9717 198.137 59.5969 198.137Z" fill="white"/>
<path d="M59.5969 185.863C61.222 185.863 62.5394 184.544 62.5394 182.917C62.5394 181.291 61.222 179.972 59.5969 179.972C57.9717 179.972 56.6543 181.291 56.6543 182.917C56.6543 184.544 57.9717 185.863 59.5969 185.863Z" fill="white"/>
<path d="M59.5969 173.589C61.222 173.589 62.5394 172.27 62.5394 170.644C62.5394 169.017 61.222 167.698 59.5969 167.698C57.9717 167.698 56.6543 169.017 56.6543 170.644C56.6543 172.27 57.9717 173.589 59.5969 173.589Z" fill="white"/>
<path d="M59.5969 161.315C61.222 161.315 62.5394 159.997 62.5394 158.37C62.5394 156.743 61.222 155.424 59.5969 155.424C57.9717 155.424 56.6543 156.743 56.6543 158.37C56.6543 159.997 57.9717 161.315 59.5969 161.315Z" fill="white"/>
<path d="M59.5969 149.042C61.222 149.042 62.5394 147.723 62.5394 146.096C62.5394 144.469 61.222 143.15 59.5969 143.15C57.9717 143.15 56.6543 144.469 56.6543 146.096C56.6543 147.723 57.9717 149.042 59.5969 149.042Z" fill="white"/>
</g>
<path d="M291.339 19.3503H95.8613C94.9012 19.3513 93.9807 19.7335 93.3019 20.4131C92.623 21.0927 92.2412 22.0142 92.2402 22.9753V190.306C92.2412 191.267 92.623 192.188 93.3019 192.868C93.9807 193.547 94.9012 193.93 95.8613 193.931H291.339C292.299 193.93 293.219 193.547 293.898 192.868C294.577 192.188 294.959 191.267 294.96 190.306V22.9753C294.959 22.0142 294.577 21.0927 293.898 20.4131C293.219 19.7335 292.299 19.3513 291.339 19.3503ZM293.509 190.306C293.508 190.882 293.28 191.435 292.873 191.844C292.467 192.252 291.915 192.483 291.339 192.485H95.8613C95.2849 192.484 94.7325 192.254 94.3256 191.845C93.9186 191.436 93.6905 190.883 93.6914 190.306V22.9753C93.6905 22.3983 93.9186 21.8445 94.3256 21.4359C94.7325 21.0273 95.2849 20.7972 95.8613 20.7962H291.339C291.915 20.7983 292.467 21.0288 292.873 21.4372C293.28 21.8455 293.508 22.3986 293.509 22.9753V190.306Z" fill="#3F3D56"/>
<path d="M140.983 164.178C140.983 164.436 140.976 164.694 140.963 164.945C140.766 168.721 139.128 172.278 136.388 174.881C133.648 177.484 130.015 178.935 126.238 178.935C122.46 178.935 118.827 177.484 116.087 174.881C113.347 172.278 111.71 168.721 111.513 164.945C111.499 164.694 111.492 164.436 111.492 164.178C111.491 162.239 111.871 160.318 112.612 158.526C113.352 156.734 114.438 155.106 115.808 153.734C117.177 152.363 118.803 151.274 120.593 150.532C122.382 149.79 124.3 149.407 126.238 149.407C128.175 149.407 130.093 149.79 131.883 150.532C133.672 151.274 135.298 152.363 136.667 153.734C138.037 155.106 139.123 156.734 139.863 158.526C140.604 160.318 140.984 162.239 140.983 164.178Z" fill="white"/>
<path d="M276.149 154.335H160.288C159.637 154.336 159.013 154.596 158.553 155.057C158.092 155.518 157.834 156.144 157.834 156.796C157.834 157.448 158.092 158.073 158.553 158.534C159.013 158.996 159.637 159.255 160.288 159.256H276.149C276.801 159.255 277.425 158.996 277.885 158.534C278.345 158.073 278.604 157.448 278.604 156.796C278.604 156.144 278.345 155.518 277.885 155.057C277.425 154.596 276.801 154.336 276.149 154.335Z" fill="#3F3D56"/>
<path d="M210.143 169.099H160.289C159.638 169.099 159.013 169.358 158.553 169.819C158.093 170.28 157.834 170.905 157.834 171.557C157.834 172.208 158.093 172.833 158.553 173.294C159.013 173.755 159.638 174.014 160.289 174.014H210.143C210.794 174.014 211.418 173.755 211.879 173.294C212.339 172.833 212.598 172.208 212.598 171.557C212.598 170.905 212.339 170.28 211.879 169.819C211.418 169.358 210.794 169.099 210.143 169.099Z" fill="white"/>
<path d="M337.78 136.957H142.304C140.976 136.955 139.704 136.427 138.765 135.487C137.826 134.547 137.298 133.273 137.297 131.944V46.0681C137.298 44.7391 137.826 43.465 138.765 42.5253C139.704 41.5855 140.976 41.0569 142.304 41.0553H337.78C339.108 41.0569 340.381 41.5855 341.319 42.5253C342.258 43.465 342.786 44.7391 342.788 46.0681V131.944C342.786 133.273 342.258 134.547 341.32 135.487C340.381 136.427 339.108 136.955 337.78 136.957ZM142.304 42.8143C141.442 42.8153 140.616 43.1585 140.007 43.7684C139.398 44.3784 139.055 45.2055 139.054 46.0681V131.944C139.055 132.807 139.398 133.634 140.007 134.244C140.616 134.854 141.442 135.197 142.304 135.198H337.78C338.642 135.197 339.468 134.854 340.078 134.244C340.687 133.634 341.03 132.807 341.031 131.944V46.0681C341.03 45.2055 340.687 44.3784 340.078 43.7684C339.468 43.1585 338.642 42.8153 337.78 42.8143H142.304Z" fill="white"/>
<path d="M182.113 72.377C181.461 72.377 180.836 72.6361 180.375 73.0975C179.914 73.5589 179.655 74.1847 179.655 74.8372C179.655 75.4897 179.914 76.1154 180.375 76.5768C180.836 77.0382 181.461 77.2974 182.113 77.2974H297.971C298.623 77.2974 299.248 77.0382 299.709 76.5768C300.17 76.1154 300.429 75.4897 300.429 74.8372C300.429 74.1847 300.17 73.5589 299.709 73.0975C299.248 72.6361 298.623 72.377 297.971 72.377H182.113Z" fill="white"/>
<path d="M182.113 86.6323C181.461 86.6323 180.836 86.8915 180.375 87.3529C179.914 87.8143 179.655 88.4401 179.655 89.0925C179.655 89.745 179.914 90.3708 180.375 90.8322C180.836 91.2936 181.461 91.5527 182.113 91.5527H297.971C298.623 91.5517 299.247 91.2921 299.707 90.8308C300.167 90.3696 300.425 89.7444 300.425 89.0925C300.425 88.4407 300.167 87.8155 299.707 87.3542C299.247 86.893 298.623 86.6333 297.971 86.6323H182.113Z" fill="white"/>
<path d="M182.113 100.715C181.461 100.715 180.836 100.974 180.375 101.435C179.914 101.897 179.655 102.522 179.655 103.175C179.655 103.827 179.914 104.453 180.375 104.915C180.836 105.376 181.461 105.635 182.113 105.635H231.967C232.618 105.634 233.242 105.375 233.703 104.913C234.163 104.452 234.421 103.827 234.421 103.175C234.421 102.523 234.163 101.898 233.703 101.437C233.242 100.975 232.618 100.716 231.967 100.715H182.113Z" fill="white"/>
<path d="M370.01 173.34L350.377 145.602L356.732 146.928C356.845 146.952 356.962 146.953 357.075 146.931C357.189 146.91 357.297 146.866 357.393 146.802C357.49 146.739 357.573 146.657 357.638 146.562C357.703 146.466 357.749 146.359 357.772 146.246C357.796 146.133 357.797 146.016 357.775 145.902C357.754 145.789 357.71 145.681 357.647 145.584C357.584 145.487 357.502 145.404 357.407 145.339C357.311 145.274 357.204 145.228 357.091 145.205L347.619 143.231L346.341 152.829C346.325 152.944 346.333 153.061 346.362 153.173C346.392 153.285 346.443 153.39 346.513 153.482C346.583 153.574 346.671 153.651 346.771 153.71C346.871 153.768 346.981 153.805 347.096 153.821C347.211 153.836 347.327 153.829 347.439 153.799C347.551 153.769 347.656 153.717 347.747 153.647C347.839 153.576 347.916 153.488 347.974 153.388C348.032 153.288 348.069 153.177 348.084 153.062L348.941 146.616L368.576 174.357C368.643 174.451 368.728 174.531 368.825 174.593C368.923 174.654 369.032 174.696 369.145 174.716C369.259 174.735 369.375 174.732 369.488 174.706C369.6 174.68 369.707 174.633 369.801 174.566C369.895 174.499 369.975 174.415 370.036 174.317C370.098 174.219 370.14 174.11 370.159 173.996C370.178 173.883 370.175 173.766 370.149 173.653C370.124 173.541 370.076 173.434 370.01 173.34V173.34Z" fill="white"/>
<path d="M263.376 254.071H123.825C123.14 254.071 122.483 253.798 121.999 253.313C121.515 252.828 121.242 252.17 121.241 251.484V216.831C121.242 216.145 121.515 215.488 121.999 215.003C122.483 214.518 123.14 214.245 123.825 214.244H263.376C264.061 214.245 264.718 214.518 265.203 215.003C265.687 215.488 265.96 216.145 265.96 216.831V251.484C265.96 252.17 265.687 252.828 265.203 253.313C264.718 253.798 264.061 254.071 263.376 254.071ZM123.825 215.279C123.414 215.279 123.02 215.443 122.73 215.734C122.439 216.025 122.275 216.42 122.275 216.831V251.484C122.275 251.896 122.439 252.291 122.73 252.582C123.02 252.873 123.414 253.036 123.825 253.037H263.376C263.787 253.036 264.181 252.873 264.472 252.582C264.763 252.291 264.926 251.896 264.927 251.484V216.831C264.926 216.42 264.763 216.025 264.472 215.734C264.181 215.443 263.787 215.279 263.376 215.279H123.825Z" fill="#3F3D56"/>
<path d="M145.508 243.366C151.322 243.366 156.035 238.648 156.035 232.828C156.035 227.008 151.322 222.29 145.508 222.29C139.695 222.29 134.981 227.008 134.981 232.828C134.981 238.648 139.695 243.366 145.508 243.366Z" fill="white"/>
<path d="M447.5 130.61H509.523C510.208 130.611 510.865 130.883 511.349 131.368C511.834 131.853 512.106 132.511 512.107 133.197V197.859C512.106 198.545 511.834 199.203 511.349 199.688C510.865 200.173 510.208 200.446 509.523 200.446H447.5C446.815 200.446 446.158 200.173 445.674 199.688C445.189 199.203 444.917 198.545 444.916 197.859V133.197C444.917 132.511 445.189 131.853 445.674 131.368C446.158 130.883 446.815 130.611 447.5 130.61ZM509.523 199.412C509.934 199.411 510.328 199.247 510.619 198.956C510.91 198.665 511.073 198.271 511.073 197.859V133.197C511.073 132.785 510.91 132.391 510.619 132.1C510.328 131.809 509.934 131.645 509.523 131.645H447.5C447.089 131.645 446.695 131.809 446.404 132.1C446.114 132.391 445.95 132.785 445.95 133.197V197.859C445.95 198.271 446.114 198.665 446.404 198.956C446.695 199.247 447.089 199.411 447.5 199.412H509.523Z" fill="#3F3D56"/>
<path d="M496.306 187.112C496.772 187.112 497.218 186.927 497.547 186.597C497.876 186.268 498.061 185.821 498.061 185.355C498.061 184.89 497.876 184.443 497.547 184.114C497.218 183.784 496.772 183.599 496.306 183.599H460.715C460.25 183.599 459.804 183.784 459.475 184.114C459.146 184.443 458.961 184.89 458.961 185.355C458.961 185.821 459.146 186.268 459.475 186.597C459.804 186.927 460.25 187.112 460.715 187.112H496.306Z" fill="white"/>
<path d="M496.307 176.764C496.537 176.764 496.766 176.719 496.979 176.631C497.192 176.543 497.386 176.414 497.549 176.25C497.713 176.087 497.842 175.893 497.931 175.68C498.019 175.467 498.064 175.238 498.064 175.007C498.064 174.776 498.019 174.548 497.931 174.334C497.842 174.121 497.713 173.927 497.549 173.764C497.386 173.601 497.192 173.472 496.979 173.384C496.766 173.296 496.537 173.251 496.307 173.251H460.716C460.485 173.251 460.257 173.296 460.043 173.384C459.83 173.472 459.636 173.601 459.473 173.764C459.31 173.927 459.18 174.121 459.092 174.334C459.004 174.548 458.958 174.776 458.958 175.007C458.958 175.238 459.004 175.467 459.092 175.68C459.18 175.893 459.31 176.087 459.473 176.25C459.636 176.414 459.83 176.543 460.043 176.631C460.257 176.719 460.485 176.764 460.716 176.764H496.307Z" fill="white"/>
<path d="M478.511 143.944C480.696 143.944 482.831 144.593 484.647 145.808C486.463 147.022 487.879 148.749 488.715 150.769C489.55 152.789 489.769 155.012 489.343 157.157C488.917 159.301 487.865 161.271 486.321 162.817C484.776 164.363 482.808 165.416 480.666 165.843C478.524 166.269 476.303 166.05 474.285 165.214C472.267 164.377 470.542 162.96 469.329 161.142C468.115 159.324 467.468 157.186 467.468 155C467.471 152.069 468.636 149.259 470.706 147.186C472.776 145.113 475.583 143.948 478.511 143.944Z" fill="white"/>
</g>
</svg>
