<svg width="36" height="36" viewBox="0 0 36 36" fill="none" xmlns="http://www.w3.org/2000/svg">
<path fill-rule="evenodd" clip-rule="evenodd" d="M18.0006 4.50154C10.5456 4.50154 4.50215 10.545 4.50215 18C4.50215 25.455 10.5456 31.4984 18.0006 31.4984C25.4556 31.4984 31.499 25.455 31.499 18C31.499 10.545 25.4556 4.50154 18.0006 4.50154ZM1.49902 18C1.49902 8.88641 8.88702 1.49841 18.0006 1.49841C27.1141 1.49841 34.5021 8.88641 34.5021 18C34.5021 27.1135 27.1141 34.5015 18.0006 34.5015C8.88702 34.5015 1.49902 27.1135 1.49902 18Z" fill="#F9AA33"/>
<path fill-rule="evenodd" clip-rule="evenodd" d="M1.49902 18C1.49902 17.1707 2.1713 16.4984 3.00059 16.4984H33.0006C33.8299 16.4984 34.5021 17.1707 34.5021 18C34.5021 18.8293 33.8299 19.5015 33.0006 19.5015H3.00059C2.1713 19.5015 1.49902 18.8293 1.49902 18Z" fill="#F9AA33"/>
<path fill-rule="evenodd" clip-rule="evenodd" d="M13.5025 18C13.6053 22.6112 15.1909 27.0507 18.0006 30.6712C20.8102 27.0507 22.3959 22.6112 22.4987 18C22.3959 13.3888 20.8102 8.94925 18.0006 5.32874C15.1909 8.94925 13.6053 13.3888 13.5025 18ZM18.0006 2.99999L16.8919 1.9873C12.8945 6.36358 10.6228 12.0429 10.4993 17.9687C10.4989 17.9896 10.4989 18.0104 10.4993 18.0313C10.6228 23.9571 12.8945 29.6364 16.8919 34.0127C17.1764 34.3241 17.5788 34.5016 18.0006 34.5016C18.4224 34.5016 18.8248 34.3241 19.1093 34.0127C23.1067 29.6364 25.3784 23.9571 25.5018 18.0313C25.5023 18.0104 25.5023 17.9896 25.5018 17.9687C25.3784 12.0429 23.1067 6.36358 19.1093 1.9873L18.0006 2.99999Z" fill="#F9AA33"/>
</svg>
